<svg width="280" height="82" viewBox="0 0 280 82" fill="none" xmlns="http://www.w3.org/2000/svg">
  <defs>
    <radialGradient id="circleGradient" cx="50%" cy="50%" r="50%" fx="50%" fy="50%">
      <stop offset="15%" style="stop-color:#27CE78;stop-opacity:1" />
      <stop offset="100%" style="stop-color:#181818;stop-opacity:1" />
    </radialGradient>
  </defs>
<g opacity="0.3" filter="url(#filter0_f_694_140)">
<circle cx="177" cy="41" r="16" fill="url(#circleGradient)"/>
</g>
<g opacity="0.3" filter="url(#filter1_f_694_140)">
<circle cx="41" cy="41" r="16" fill="url(#circleGradient)"/>
</g>
<path d="M58.3068 33H54.5682C54.2898 31.608 53.786 30.322 53.0568 29.142C52.3409 27.9489 51.4394 26.9081 50.3523 26.0199C49.2652 25.1316 48.0322 24.4422 46.6534 23.9517C45.2746 23.4612 43.7831 23.2159 42.179 23.2159C39.607 23.2159 37.2604 23.8854 35.1392 25.2244C33.0313 26.5634 31.3409 28.5322 30.0682 31.1307C28.8087 33.7159 28.179 36.8845 28.179 40.6364C28.179 44.4148 28.8087 47.5966 30.0682 50.1818C31.3409 52.767 33.0313 54.7292 35.1392 56.0682C37.2604 57.3939 39.607 58.0568 42.179 58.0568C43.7831 58.0568 45.2746 57.8116 46.6534 57.321C48.0322 56.8305 49.2652 56.1477 50.3523 55.2727C51.4394 54.3845 52.3409 53.3437 53.0568 52.1506C53.786 50.9574 54.2898 49.6648 54.5682 48.2727H58.3068C57.9754 50.142 57.3523 51.8854 56.4375 53.5028C55.536 55.107 54.3826 56.5123 52.9773 57.7188C51.5852 58.9252 49.9811 59.8665 48.1648 60.5426C46.3485 61.2187 44.3532 61.5568 42.179 61.5568C38.7585 61.5568 35.7225 60.7017 33.071 58.9915C30.4195 57.268 28.3381 54.8419 26.8267 51.7131C25.3286 48.5843 24.5795 44.892 24.5795 40.6364C24.5795 36.3807 25.3286 32.6884 26.8267 29.5597C28.3381 26.4309 30.4195 24.0114 33.071 22.3011C35.7225 20.5776 38.7585 19.7159 42.179 19.7159C44.3532 19.7159 46.3485 20.054 48.1648 20.7301C49.9811 21.393 51.5852 22.3343 52.9773 23.554C54.3826 24.7604 55.536 26.1657 56.4375 27.7699C57.3523 29.3741 57.9754 31.1174 58.3068 33ZM191.471 33H187.732C187.454 31.608 186.95 30.322 186.221 29.142C185.505 27.9489 184.603 26.9081 183.516 26.0199C182.429 25.1316 181.196 24.4422 179.817 23.9517C178.439 23.4612 176.947 23.2159 175.343 23.2159C172.771 23.2159 170.424 23.8854 168.303 25.2244C166.195 26.5634 164.505 28.5322 163.232 31.1307C161.973 33.7159 161.343 36.8845 161.343 40.6364C161.343 44.4148 161.973 47.5966 163.232 50.1818C164.505 52.767 166.195 54.7292 168.303 56.0682C170.424 57.3939 172.771 58.0568 175.343 58.0568C176.947 58.0568 178.439 57.8116 179.817 57.321C181.196 56.8305 182.429 56.1477 183.516 55.2727C184.603 54.3845 185.505 53.3437 186.221 52.1506C186.95 50.9574 187.454 49.6648 187.732 48.2727H191.471C191.139 50.142 190.516 51.8854 189.602 53.5028C188.7 55.107 187.547 56.5123 186.141 57.7188C184.749 58.9252 183.145 59.8665 181.329 60.5426C179.513 61.2187 177.517 61.5568 175.343 61.5568C171.923 61.5568 168.887 60.7017 166.235 58.9915C163.584 57.268 161.502 54.8419 159.991 51.7131C158.493 48.5843 157.744 44.892 157.744 40.6364C157.744 36.3807 158.493 32.6884 159.991 29.5597C161.502 26.4309 163.584 24.0114 166.235 22.3011C168.887 20.5776 171.923 19.7159 175.343 19.7159C177.517 19.7159 179.513 20.054 181.329 20.7301C183.145 21.393 184.749 22.3343 186.141 23.554C187.547 24.7604 188.7 26.1657 189.602 27.7699C190.516 29.3741 191.139 31.1174 191.471 33Z" fill="#27CE78"/>
<path d="M74.8374 61.696C72.9946 61.696 71.3108 61.3381 69.7862 60.6222C68.2616 59.893 67.0485 58.8456 66.147 57.4801C65.2455 56.1013 64.7947 54.4309 64.7947 52.4688C64.7947 50.9574 65.0798 49.6847 65.6499 48.6506C66.2199 47.6165 67.0286 46.768 68.076 46.1051C69.1233 45.4422 70.3629 44.9186 71.7947 44.5341C73.2266 44.1496 74.8042 43.8513 76.5277 43.6392C78.2379 43.4271 79.683 43.2415 80.8629 43.0824C82.0561 42.9233 82.9643 42.6714 83.5874 42.3267C84.2105 41.982 84.522 41.4252 84.522 40.6562V39.9403C84.522 37.8589 83.8989 36.2216 82.6527 35.0284C81.4197 33.822 79.6432 33.2188 77.3232 33.2188C75.1224 33.2188 73.326 33.7027 71.9339 34.6705C70.5552 35.6383 69.5874 36.7784 69.0305 38.0909L65.6697 36.8778C66.3591 35.2074 67.3137 33.875 68.5334 32.8807C69.7531 31.8731 71.1186 31.1506 72.63 30.7131C74.1413 30.2623 75.6726 30.0369 77.2237 30.0369C78.3904 30.0369 79.6035 30.1894 80.8629 30.4943C82.1357 30.7992 83.3156 31.3295 84.4027 32.0852C85.4898 32.8277 86.3714 33.8684 87.0476 35.2074C87.7237 36.5331 88.0618 38.2169 88.0618 40.2585V61H84.522V56.1676H84.3033C83.879 57.0691 83.2493 57.9441 82.4141 58.7926C81.5788 59.6411 80.5315 60.3371 79.272 60.8807C78.0125 61.4242 76.5343 61.696 74.8374 61.696ZM75.3146 58.4545C77.1972 58.4545 78.8279 58.0369 80.2067 57.2017C81.5855 56.3665 82.6461 55.2595 83.3885 53.8807C84.1442 52.4886 84.522 50.9574 84.522 49.2869V44.8722C84.2569 45.1241 83.8127 45.3494 83.1896 45.5483C82.5798 45.7472 81.8705 45.9261 81.0618 46.0852C80.2663 46.2311 79.4709 46.357 78.6754 46.4631C77.88 46.5691 77.1641 46.6619 76.5277 46.7415C74.8042 46.9536 73.3326 47.285 72.1129 47.7358C70.8932 48.1866 69.9586 48.8097 69.3089 49.6051C68.6593 50.3873 68.3345 51.3949 68.3345 52.6278C68.3345 54.4839 68.9974 55.9223 70.3232 56.9432C71.6489 57.9508 73.3127 58.4545 75.3146 58.4545ZM118.001 37.1562L114.759 38.071C114.441 37.1562 113.99 36.3277 113.407 35.5852C112.824 34.8428 112.061 34.2528 111.12 33.8153C110.192 33.3778 109.039 33.1591 107.66 33.1591C105.592 33.1591 103.895 33.6496 102.569 34.6307C101.243 35.6117 100.58 36.8778 100.58 38.429C100.58 39.7415 101.031 40.8087 101.933 41.6307C102.847 42.4394 104.253 43.0824 106.148 43.5597L110.762 44.6932C113.321 45.3163 115.237 46.304 116.509 47.6562C117.795 49.0085 118.438 50.7055 118.438 52.7472C118.438 54.4706 117.961 56.0019 117.006 57.3409C116.052 58.6799 114.719 59.7339 113.009 60.5028C111.312 61.2585 109.344 61.6364 107.103 61.6364C104.12 61.6364 101.661 60.9669 99.7251 59.6278C97.7895 58.2756 96.55 56.3267 96.0064 53.7812L99.407 52.946C99.8445 54.7623 100.7 56.1345 101.972 57.0625C103.258 57.9905 104.949 58.4545 107.043 58.4545C109.39 58.4545 111.266 57.9309 112.671 56.8835C114.076 55.8229 114.779 54.4972 114.779 52.9062C114.779 51.6733 114.368 50.6392 113.546 49.804C112.724 48.9555 111.478 48.3324 109.808 47.9347L104.816 46.7415C102.165 46.1051 100.202 45.0975 98.9297 43.7188C97.657 42.34 97.0206 40.6297 97.0206 38.5881C97.0206 36.9044 97.478 35.4261 98.3928 34.1534C99.3075 32.8674 100.567 31.8598 102.171 31.1307C103.775 30.4015 105.605 30.0369 107.66 30.0369C110.457 30.0369 112.691 30.6733 114.362 31.946C116.045 33.2055 117.258 34.9422 118.001 37.1562ZM129.729 41.9091V61H126.189V20.2727H129.729V35.2472H130.047C130.763 33.6695 131.87 32.41 133.368 31.4688C134.879 30.5275 136.788 30.0568 139.095 30.0568C141.163 30.0568 142.98 30.4811 144.544 31.3295C146.108 32.178 147.328 33.4309 148.203 35.0881C149.078 36.7453 149.516 38.7869 149.516 41.2131V61H145.956V41.4318C145.956 38.9129 145.253 36.9309 143.848 35.4858C142.456 34.0275 140.573 33.2983 138.2 33.2983C136.57 33.2983 135.118 33.643 133.845 34.3324C132.572 35.0218 131.565 36.0161 130.822 37.3153C130.093 38.6013 129.729 40.1326 129.729 41.9091ZM211.342 61.6364C208.704 61.6364 206.371 60.9669 204.342 59.6278C202.327 58.2888 200.75 56.4394 199.609 54.0795C198.469 51.7064 197.899 48.9687 197.899 45.8665C197.899 42.7377 198.469 39.9867 199.609 37.6136C200.75 35.2273 202.327 33.3712 204.342 32.0455C206.371 30.7064 208.704 30.0369 211.342 30.0369C213.981 30.0369 216.307 30.7064 218.322 32.0455C220.338 33.3845 221.915 35.2405 223.055 37.6136C224.209 39.9867 224.786 42.7377 224.786 45.8665C224.786 48.9687 224.215 51.7064 223.075 54.0795C221.935 56.4394 220.351 58.2888 218.322 59.6278C216.307 60.9669 213.981 61.6364 211.342 61.6364ZM211.342 58.3949C213.464 58.3949 215.26 57.8248 216.732 56.6847C218.203 55.5445 219.317 54.0265 220.072 52.1307C220.841 50.2348 221.226 48.1468 221.226 45.8665C221.226 43.5862 220.841 41.4915 220.072 39.5824C219.317 37.6733 218.203 36.142 216.732 34.9886C215.26 33.8352 213.464 33.2585 211.342 33.2585C209.234 33.2585 207.438 33.8352 205.953 34.9886C204.482 36.142 203.361 37.6733 202.592 39.5824C201.837 41.4915 201.459 43.5862 201.459 45.8665C201.459 48.1468 201.837 50.2348 202.592 52.1307C203.361 54.0265 204.482 55.5445 205.953 56.6847C207.425 57.8248 209.221 58.3949 211.342 58.3949ZM232.556 61V30.4545H235.996V35.1477H236.255C236.865 33.6098 237.925 32.3703 239.437 31.429C240.961 30.4744 242.685 29.9972 244.607 29.9972C244.899 29.9972 245.224 30.0038 245.582 30.017C245.94 30.0303 246.238 30.0436 246.477 30.0568V33.6562C246.317 33.6297 246.039 33.59 245.641 33.5369C245.244 33.4839 244.813 33.4574 244.349 33.4574C242.758 33.4574 241.339 33.7955 240.093 34.4716C238.86 35.1345 237.886 36.0559 237.17 37.2358C236.454 38.4157 236.096 39.7614 236.096 41.2727V61H232.556ZM263.937 61.6364C261.086 61.6364 258.621 60.9735 256.539 59.6477C254.458 58.3087 252.847 56.4593 251.707 54.0994C250.58 51.7263 250.016 48.9953 250.016 45.9062C250.016 42.8305 250.58 40.0994 251.707 37.7131C252.847 35.3134 254.418 33.4375 256.42 32.0852C258.435 30.7197 260.762 30.0369 263.4 30.0369C265.057 30.0369 266.655 30.3419 268.192 30.9517C269.73 31.5483 271.109 32.4697 272.329 33.7159C273.562 34.9489 274.536 36.5066 275.252 38.3892C275.968 40.2585 276.326 42.4725 276.326 45.0312V46.7812H252.462V43.6591H272.707C272.707 41.697 272.309 39.9337 271.513 38.3693C270.731 36.7917 269.638 35.5455 268.232 34.6307C266.84 33.7159 265.229 33.2585 263.4 33.2585C261.464 33.2585 259.761 33.7756 258.289 34.8097C256.817 35.8437 255.664 37.2093 254.829 38.9062C254.007 40.6032 253.589 42.4593 253.576 44.4744V46.3438C253.576 48.7699 253.994 50.8911 254.829 52.7074C255.677 54.5104 256.877 55.9091 258.428 56.9034C259.979 57.8977 261.816 58.3949 263.937 58.3949C265.382 58.3949 266.648 58.1695 267.735 57.7188C268.835 57.268 269.757 56.6648 270.499 55.9091C271.255 55.1402 271.825 54.2983 272.21 53.3835L275.57 54.4773C275.106 55.7633 274.344 56.9498 273.283 58.0369C272.236 59.1241 270.924 59.9991 269.346 60.6619C267.781 61.3116 265.978 61.6364 263.937 61.6364Z" fill="white"/>
<line x1="41.5" y1="20" x2="41.5" y2="11" stroke="#27CE78"/>
<line x1="41.5" y1="61" x2="41.5" y2="70" stroke="#27CE78"/>
<defs>
<filter id="filter0_f_694_140" x="136" y="0" width="82" height="82" filterUnits="userSpaceOnUse" color-interpolation-filters="sRGB">
<feFlood flood-opacity="0" result="BackgroundImageFix"/>
<feBlend mode="normal" in="SourceGraphic" in2="BackgroundImageFix" result="shape"/>
<feGaussianBlur stdDeviation="12.5" result="effect1_foregroundBlur_694_140"/>
</filter>
<filter id="filter1_f_694_140" x="0" y="0" width="82" height="82" filterUnits="userSpaceOnUse" color-interpolation-filters="sRGB">
<feFlood flood-opacity="0" result="BackgroundImageFix"/>
<feBlend mode="normal" in="SourceGraphic" in2="BackgroundImageFix" result="shape"/>
<feGaussianBlur stdDeviation="12.5" result="effect1_foregroundBlur_694_140"/>
</filter>
</defs>
</svg>
