<svg width="92" height="44" viewBox="0 0 92 44" fill="none" xmlns="http://www.w3.org/2000/svg">
<rect y="0.5" width="92" height="43" rx="10" fill="url(#paint0_linear_730_1380)"/>
<path d="M23.8125 18.9205C23.7519 18.3826 23.5019 17.9659 23.0625 17.6705C22.6231 17.3712 22.0701 17.2216 21.4034 17.2216C20.9261 17.2216 20.5133 17.2973 20.1648 17.4489C19.8163 17.5966 19.5455 17.8011 19.3523 18.0625C19.1629 18.3201 19.0682 18.6136 19.0682 18.9432C19.0682 19.2197 19.1326 19.4583 19.2614 19.6591C19.3939 19.8598 19.5663 20.0284 19.7784 20.1648C19.9943 20.2973 20.2254 20.4091 20.4716 20.5C20.7178 20.5871 20.9545 20.6591 21.1818 20.7159L22.3182 21.0114C22.6894 21.1023 23.0701 21.2254 23.4602 21.3807C23.8504 21.536 24.2121 21.7405 24.5455 21.9943C24.8788 22.2481 25.1477 22.5625 25.3523 22.9375C25.5606 23.3125 25.6648 23.7614 25.6648 24.2841C25.6648 24.9432 25.4943 25.5284 25.1534 26.0398C24.8163 26.5511 24.3258 26.9545 23.6818 27.25C23.0417 27.5455 22.267 27.6932 21.358 27.6932C20.4867 27.6932 19.733 27.5549 19.0966 27.2784C18.4602 27.0019 17.9621 26.6098 17.6023 26.1023C17.2424 25.5909 17.0436 24.9848 17.0057 24.2841H18.767C18.8011 24.7045 18.9375 25.0549 19.1761 25.3352C19.4186 25.6117 19.7273 25.8182 20.1023 25.9545C20.4811 26.0871 20.8958 26.1534 21.3466 26.1534C21.8428 26.1534 22.2841 26.0758 22.6705 25.9205C23.0606 25.7614 23.3674 25.5417 23.5909 25.2614C23.8144 24.9773 23.9261 24.6458 23.9261 24.267C23.9261 23.9223 23.8277 23.6402 23.6307 23.4205C23.4375 23.2008 23.1742 23.0189 22.8409 22.875C22.5114 22.7311 22.1383 22.6042 21.7216 22.4943L20.3466 22.1193C19.4148 21.8655 18.6761 21.4924 18.1307 21C17.589 20.5076 17.3182 19.8561 17.3182 19.0455C17.3182 18.375 17.5 17.7898 17.8636 17.2898C18.2273 16.7898 18.7197 16.4015 19.3409 16.125C19.9621 15.8447 20.6629 15.7045 21.4432 15.7045C22.2311 15.7045 22.9261 15.8428 23.5284 16.1193C24.1345 16.3958 24.6117 16.7765 24.9602 17.2614C25.3087 17.7424 25.4905 18.2955 25.5057 18.9205H23.8125ZM27.6264 27.5V18.7727H29.3253V27.5H27.6264ZM28.4844 17.4261C28.1889 17.4261 27.9351 17.3277 27.723 17.1307C27.5147 16.9299 27.4105 16.6913 27.4105 16.4148C27.4105 16.1345 27.5147 15.8958 27.723 15.6989C27.9351 15.4981 28.1889 15.3977 28.4844 15.3977C28.7798 15.3977 29.0317 15.4981 29.2401 15.6989C29.4522 15.8958 29.5582 16.1345 29.5582 16.4148C29.5582 16.6913 29.4522 16.9299 29.2401 17.1307C29.0317 17.3277 28.7798 17.4261 28.4844 17.4261ZM35.2699 30.9545C34.5767 30.9545 33.9801 30.8636 33.4801 30.6818C32.9839 30.5 32.5786 30.2595 32.2642 29.9602C31.9498 29.661 31.715 29.3333 31.5597 28.9773L33.0199 28.375C33.1222 28.5417 33.2585 28.7178 33.429 28.9034C33.6032 29.0928 33.8381 29.2538 34.1335 29.3864C34.4328 29.5189 34.8172 29.5852 35.2869 29.5852C35.9309 29.5852 36.4631 29.428 36.8835 29.1136C37.304 28.803 37.5142 28.3068 37.5142 27.625V25.9091H37.4062C37.304 26.0947 37.1563 26.3011 36.9631 26.5284C36.7737 26.7557 36.5123 26.9527 36.179 27.1193C35.8456 27.286 35.4119 27.3693 34.8778 27.3693C34.1884 27.3693 33.5672 27.2083 33.0142 26.8864C32.465 26.5606 32.0294 26.0814 31.7074 25.4489C31.3892 24.8125 31.2301 24.0303 31.2301 23.1023C31.2301 22.1742 31.3873 21.3788 31.7017 20.7159C32.0199 20.053 32.4555 19.5455 33.0085 19.1932C33.5616 18.8371 34.1884 18.6591 34.8892 18.6591C35.4309 18.6591 35.8684 18.75 36.2017 18.9318C36.535 19.1098 36.7945 19.3182 36.9801 19.5568C37.1695 19.7955 37.3153 20.0057 37.4176 20.1875H37.5426V18.7727H39.2074V27.6932C39.2074 28.4432 39.0331 29.0587 38.6847 29.5398C38.3362 30.0208 37.8646 30.3769 37.2699 30.608C36.679 30.839 36.0123 30.9545 35.2699 30.9545ZM35.2528 25.9602C35.7415 25.9602 36.1544 25.8466 36.4915 25.6193C36.8324 25.3883 37.09 25.0587 37.2642 24.6307C37.4422 24.1989 37.5312 23.6818 37.5312 23.0795C37.5312 22.4924 37.4441 21.9754 37.2699 21.5284C37.0956 21.0814 36.84 20.733 36.5028 20.483C36.1657 20.2292 35.7491 20.1023 35.2528 20.1023C34.7415 20.1023 34.3153 20.2348 33.9744 20.5C33.6335 20.7614 33.3759 21.1174 33.2017 21.5682C33.0313 22.0189 32.946 22.5227 32.946 23.0795C32.946 23.6515 33.0331 24.1534 33.2074 24.5852C33.3816 25.017 33.6392 25.3542 33.9801 25.5966C34.3248 25.839 34.7491 25.9602 35.2528 25.9602ZM43.1847 22.3182V27.5H41.4858V18.7727H43.1165V20.1932H43.2244C43.4252 19.7311 43.7396 19.3598 44.1676 19.0795C44.5994 18.7992 45.143 18.6591 45.7983 18.6591C46.393 18.6591 46.9138 18.7841 47.3608 19.0341C47.8078 19.2803 48.1544 19.6477 48.4006 20.1364C48.6468 20.625 48.7699 21.2292 48.7699 21.9489V27.5H47.071V22.1534C47.071 21.5208 46.9063 21.0265 46.5767 20.6705C46.2472 20.3106 45.7945 20.1307 45.2188 20.1307C44.8248 20.1307 44.4744 20.2159 44.1676 20.3864C43.8646 20.5568 43.6241 20.8068 43.446 21.1364C43.2718 21.4621 43.1847 21.8561 43.1847 22.3182ZM62.902 15.8636H64.6634V23.517C64.6634 24.3314 64.4721 25.053 64.0895 25.6818C63.7069 26.3068 63.169 26.7992 62.4759 27.1591C61.7827 27.5152 60.9702 27.6932 60.0384 27.6932C59.1103 27.6932 58.2997 27.5152 57.6065 27.1591C56.9134 26.7992 56.3755 26.3068 55.9929 25.6818C55.6103 25.053 55.419 24.3314 55.419 23.517V15.8636H57.1747V23.375C57.1747 23.9015 57.2902 24.3693 57.5213 24.7784C57.7562 25.1875 58.0876 25.5095 58.5156 25.7443C58.9437 25.9754 59.4512 26.0909 60.0384 26.0909C60.6293 26.0909 61.1387 25.9754 61.5668 25.7443C61.9986 25.5095 62.3281 25.1875 62.5554 24.7784C62.7865 24.3693 62.902 23.9015 62.902 23.375V15.8636ZM67.0795 30.7727V18.7727H68.7386V20.1875H68.8807C68.9792 20.0057 69.1212 19.7955 69.3068 19.5568C69.4924 19.3182 69.75 19.1098 70.0795 18.9318C70.4091 18.75 70.8447 18.6591 71.3864 18.6591C72.0909 18.6591 72.7197 18.8371 73.2727 19.1932C73.8258 19.5492 74.2595 20.0625 74.5739 20.733C74.892 21.4034 75.0511 22.2102 75.0511 23.1534C75.0511 24.0966 74.8939 24.9053 74.5795 25.5795C74.2652 26.25 73.8333 26.767 73.2841 27.1307C72.7348 27.4905 72.108 27.6705 71.4034 27.6705C70.8731 27.6705 70.4394 27.5814 70.1023 27.4034C69.7689 27.2254 69.5076 27.017 69.3182 26.7784C69.1288 26.5398 68.983 26.3277 68.8807 26.142H68.7784V30.7727H67.0795ZM68.7443 23.1364C68.7443 23.75 68.8333 24.2879 69.0114 24.75C69.1894 25.2121 69.447 25.5739 69.7841 25.8352C70.1212 26.0928 70.5341 26.2216 71.0227 26.2216C71.5303 26.2216 71.9545 26.0871 72.2955 25.8182C72.6364 25.5455 72.8939 25.1761 73.0682 24.7102C73.2462 24.2443 73.3352 23.7197 73.3352 23.1364C73.3352 22.5606 73.2481 22.0436 73.0739 21.5852C72.9034 21.1269 72.6458 20.7652 72.3011 20.5C71.9602 20.2348 71.5341 20.1023 71.0227 20.1023C70.5303 20.1023 70.1136 20.2292 69.7727 20.483C69.4356 20.7367 69.1799 21.0909 69.0057 21.5455C68.8314 22 68.7443 22.5303 68.7443 23.1364Z" fill="white"/>
<defs>
<linearGradient id="paint0_linear_730_1380" x1="-5.1552e-07" y1="20.3462" x2="90.7348" y2="20.6692" gradientUnits="userSpaceOnUse">
<stop stop-color="#299F62"/>
<stop offset="1" stop-color="#4DB088"/>
</linearGradient>
</defs>
</svg>
