<svg width="75" height="44" viewBox="0 0 75 44" fill="none" xmlns="http://www.w3.org/2000/svg">
<rect x="0.5" y="1" width="74" height="42" rx="9.5" stroke="url(#paint0_linear_730_1382)"/>
<path d="M17.7315 27.5V15.8636H19.4872V25.9886H24.7599V27.5H17.7315ZM30.3026 27.6761C29.4844 27.6761 28.7704 27.4886 28.1605 27.1136C27.5507 26.7386 27.0772 26.214 26.7401 25.5398C26.4029 24.8655 26.2344 24.0777 26.2344 23.1761C26.2344 22.2708 26.4029 21.4792 26.7401 20.8011C27.0772 20.1231 27.5507 19.5966 28.1605 19.2216C28.7704 18.8466 29.4844 18.6591 30.3026 18.6591C31.1207 18.6591 31.8348 18.8466 32.4446 19.2216C33.0545 19.5966 33.5279 20.1231 33.8651 20.8011C34.2022 21.4792 34.3707 22.2708 34.3707 23.1761C34.3707 24.0777 34.2022 24.8655 33.8651 25.5398C33.5279 26.214 33.0545 26.7386 32.4446 27.1136C31.8348 27.4886 31.1207 27.6761 30.3026 27.6761ZM30.3082 26.25C30.8385 26.25 31.2779 26.1098 31.6264 25.8295C31.9749 25.5492 32.2325 25.1761 32.3991 24.7102C32.5696 24.2443 32.6548 23.7311 32.6548 23.1705C32.6548 22.6136 32.5696 22.1023 32.3991 21.6364C32.2325 21.1667 31.9749 20.7898 31.6264 20.5057C31.2779 20.2216 30.8385 20.0795 30.3082 20.0795C29.7741 20.0795 29.331 20.2216 28.9787 20.5057C28.6302 20.7898 28.3707 21.1667 28.2003 21.6364C28.0336 22.1023 27.9503 22.6136 27.9503 23.1705C27.9503 23.7311 28.0336 24.2443 28.2003 24.7102C28.3707 25.1761 28.6302 25.5492 28.9787 25.8295C29.331 26.1098 29.7741 26.25 30.3082 26.25ZM39.9261 30.9545C39.233 30.9545 38.6364 30.8636 38.1364 30.6818C37.6402 30.5 37.2348 30.2595 36.9205 29.9602C36.6061 29.661 36.3712 29.3333 36.2159 28.9773L37.6761 28.375C37.7784 28.5417 37.9148 28.7178 38.0852 28.9034C38.2595 29.0928 38.4943 29.2538 38.7898 29.3864C39.089 29.5189 39.4735 29.5852 39.9432 29.5852C40.5871 29.5852 41.1193 29.428 41.5398 29.1136C41.9602 28.803 42.1705 28.3068 42.1705 27.625V25.9091H42.0625C41.9602 26.0947 41.8125 26.3011 41.6193 26.5284C41.4299 26.7557 41.1686 26.9527 40.8352 27.1193C40.5019 27.286 40.0682 27.3693 39.5341 27.3693C38.8447 27.3693 38.2235 27.2083 37.6705 26.8864C37.1212 26.5606 36.6856 26.0814 36.3636 25.4489C36.0455 24.8125 35.8864 24.0303 35.8864 23.1023C35.8864 22.1742 36.0436 21.3788 36.358 20.7159C36.6761 20.053 37.1117 19.5455 37.6648 19.1932C38.2178 18.8371 38.8447 18.6591 39.5455 18.6591C40.0871 18.6591 40.5246 18.75 40.858 18.9318C41.1913 19.1098 41.4508 19.3182 41.6364 19.5568C41.8258 19.7955 41.9716 20.0057 42.0739 20.1875H42.1989V18.7727H43.8636V27.6932C43.8636 28.4432 43.6894 29.0587 43.3409 29.5398C42.9924 30.0208 42.5208 30.3769 41.9261 30.608C41.3352 30.839 40.6686 30.9545 39.9261 30.9545ZM39.9091 25.9602C40.3977 25.9602 40.8106 25.8466 41.1477 25.6193C41.4886 25.3883 41.7462 25.0587 41.9205 24.6307C42.0985 24.1989 42.1875 23.6818 42.1875 23.0795C42.1875 22.4924 42.1004 21.9754 41.9261 21.5284C41.7519 21.0814 41.4962 20.733 41.1591 20.483C40.822 20.2292 40.4053 20.1023 39.9091 20.1023C39.3977 20.1023 38.9716 20.2348 38.6307 20.5C38.2898 20.7614 38.0322 21.1174 37.858 21.5682C37.6875 22.0189 37.6023 22.5227 37.6023 23.0795C37.6023 23.6515 37.6894 24.1534 37.8636 24.5852C38.0379 25.017 38.2955 25.3542 38.6364 25.5966C38.9811 25.839 39.4053 25.9602 39.9091 25.9602ZM46.142 27.5V18.7727H47.8409V27.5H46.142ZM47 17.4261C46.7045 17.4261 46.4508 17.3277 46.2386 17.1307C46.0303 16.9299 45.9261 16.6913 45.9261 16.4148C45.9261 16.1345 46.0303 15.8958 46.2386 15.6989C46.4508 15.4981 46.7045 15.3977 47 15.3977C47.2955 15.3977 47.5473 15.4981 47.7557 15.6989C47.9678 15.8958 48.0739 16.1345 48.0739 16.4148C48.0739 16.6913 47.9678 16.9299 47.7557 17.1307C47.5473 17.3277 47.2955 17.4261 47 17.4261ZM51.8253 22.3182V27.5H50.1264V18.7727H51.7571V20.1932H51.8651C52.0658 19.7311 52.3802 19.3598 52.8082 19.0795C53.2401 18.7992 53.7836 18.6591 54.4389 18.6591C55.0336 18.6591 55.5545 18.7841 56.0014 19.0341C56.4484 19.2803 56.795 19.6477 57.0412 20.1364C57.2874 20.625 57.4105 21.2292 57.4105 21.9489V27.5H55.7116V22.1534C55.7116 21.5208 55.5469 21.0265 55.2173 20.6705C54.8878 20.3106 54.4351 20.1307 53.8594 20.1307C53.4654 20.1307 53.1151 20.2159 52.8082 20.3864C52.5052 20.5568 52.2647 20.8068 52.0866 21.1364C51.9124 21.4621 51.8253 21.8561 51.8253 22.3182Z" fill="white"/>
<defs>
<linearGradient id="paint0_linear_730_1382" x1="0" y1="22" x2="75" y2="22" gradientUnits="userSpaceOnUse">
<stop stop-color="#299F62"/>
<stop offset="1" stop-color="#4DB088"/>
</linearGradient>
</defs>
</svg>
